<svg xmlns="http://www.w3.org/2000/svg" viewBox="0 0 342 342" width="342" height="342">
	<style>
		tspan { white-space:pre }
		.shp0 { opacity: 0.502;fill: #ffffff } 
	</style>
	<g id="Section_2">
		<g id="image">
			<g id="image">
				<path id="Shape copy 2" class="shp0" d="M340.14 205.22L340.14 204.83L338.58 204.83L337.03 204.83L337.03 205.22C336.4 205.54 335.89 206.06 335.56 206.69L335.17 206.69L335.17 208.24L335.17 209.79L335.56 209.79C335.89 210.42 336.4 210.94 337.03 211.26L337.03 211.65L338.58 211.65L340.14 211.65L340.14 211.26C340.77 210.94 341.28 210.42 341.61 209.79L342 209.79L342 208.24L342 206.69L341.61 206.69C341.28 206.06 340.77 205.54 340.14 205.22ZM340.14 167.98L340.14 167.59L338.58 167.59L337.03 167.59L337.03 167.98C335.93 168.54 335.17 169.68 335.17 171C335.17 172.32 335.93 173.46 337.03 174.02L337.03 174.41L338.58 174.41L340.14 174.41L340.14 174.02C341.24 173.46 342 172.32 342 171C342 169.68 341.24 168.54 340.14 167.98ZM341.61 132.21C341.28 131.57 340.77 131.06 340.14 130.73L340.14 130.34L338.58 130.34L337.03 130.34L337.03 130.73C336.4 131.06 335.89 131.57 335.56 132.21L335.17 132.21L335.17 133.76L335.17 135.31L335.56 135.31C335.89 135.94 336.4 136.45 337.03 136.78L337.03 137.17L338.58 137.17L340.14 137.17L340.14 136.78C340.77 136.45 341.28 135.94 341.61 135.31L342 135.31L342 133.76L342 132.21L341.61 132.21ZM301.34 55.86C300.02 55.86 298.89 56.62 298.32 57.72L297.93 57.72L297.93 59.28L297.93 60.83L298.32 60.83C298.89 61.93 300.02 62.69 301.34 62.69C302.66 62.69 303.8 61.93 304.37 60.83L304.76 60.83L304.76 59.28L304.76 57.72L304.37 57.72C303.8 56.62 302.66 55.86 301.34 55.86ZM282.72 37.24C280.84 37.24 279.31 38.77 279.31 40.66C279.31 42.54 280.84 44.07 282.72 44.07C284.61 44.07 286.14 42.54 286.14 40.66C286.14 38.77 284.61 37.24 282.72 37.24ZM265.65 56.25L265.65 55.86L264.1 55.86L262.55 55.86L262.55 56.25C261.92 56.58 261.41 57.09 261.08 57.72L260.69 57.72L260.69 59.28L260.69 60.83L261.08 60.83C261.41 61.46 261.92 61.97 262.55 62.3L262.55 62.69L264.1 62.69L265.65 62.69L265.65 62.3C266.29 61.97 266.8 61.46 267.13 60.83L267.52 60.83L267.52 59.28L267.52 57.72L267.13 57.72C266.8 57.09 266.29 56.58 265.65 56.25ZM301.34 130.34C300.02 130.34 298.89 131.11 298.32 132.21L297.93 132.21L297.93 133.76L297.93 135.31L298.32 135.31C298.89 136.41 300.02 137.17 301.34 137.17C302.66 137.17 303.8 136.41 304.37 135.31L304.76 135.31L304.76 133.76L304.76 132.21L304.37 132.21C303.8 131.11 302.66 130.34 301.34 130.34ZM301.34 93.1C299.46 93.1 297.93 94.63 297.93 96.52C297.93 98.4 299.46 99.93 301.34 99.93C303.23 99.93 304.76 98.4 304.76 96.52C304.76 94.63 303.23 93.1 301.34 93.1ZM319.96 111.72C318.08 111.72 316.55 113.25 316.55 115.14C316.55 117.02 318.08 118.55 319.96 118.55C321.85 118.55 323.38 117.02 323.38 115.14C323.38 113.25 321.85 111.72 319.96 111.72ZM282.72 111.72C280.84 111.72 279.31 113.25 279.31 115.14C279.31 117.02 280.84 118.55 282.72 118.55C284.61 118.55 286.14 117.02 286.14 115.14C286.14 113.25 284.61 111.72 282.72 111.72ZM318.76 81.08L323.05 82.7L320.32 78.31C320.03 77.84 319.74 77.37 319.44 76.9L316.97 73.04L316.6 77.5L316.55 77.9C316.55 79.32 317.42 80.57 318.76 81.08ZM282.72 74.48C280.84 74.48 279.31 76.01 279.31 77.9C279.31 79.78 280.84 81.31 282.72 81.31C284.61 81.31 286.14 79.78 286.14 77.9C286.14 76.01 284.61 74.48 282.72 74.48ZM265.65 130.73L265.65 130.34L264.1 130.34L262.55 130.34L262.55 130.73C261.92 131.06 261.41 131.57 261.08 132.21L260.69 132.21L260.69 133.76L260.69 135.31L261.08 135.31C261.41 135.94 261.92 136.45 262.55 136.78L262.55 137.17L264.1 137.17L265.65 137.17L265.65 136.78C266.29 136.45 266.8 135.94 267.13 135.31L267.52 135.31L267.52 133.76L267.52 132.21L267.13 132.21C266.8 131.57 266.29 131.06 265.65 130.73ZM265.65 93.49L265.65 93.1L264.1 93.1L262.55 93.1L262.55 93.49C261.45 94.06 260.69 95.2 260.69 96.52C260.69 97.84 261.45 98.97 262.55 99.54L262.55 99.93L264.1 99.93L265.65 99.93L265.65 99.54C266.75 98.97 267.52 97.84 267.52 96.52C267.52 95.2 266.75 94.06 265.65 93.49ZM301.34 204.83C300.02 204.83 298.89 205.59 298.32 206.69L297.93 206.69L297.93 208.24L297.93 209.79L298.32 209.79C298.89 210.89 300.02 211.65 301.34 211.65C302.66 211.65 303.8 210.89 304.37 209.79L304.76 209.79L304.76 208.24L304.76 206.69L304.37 206.69C303.8 205.59 302.66 204.83 301.34 204.83ZM301.34 167.59C299.46 167.59 297.93 169.12 297.93 171C297.93 172.88 299.46 174.41 301.34 174.41C303.23 174.41 304.76 172.88 304.76 171C304.76 169.12 303.23 167.59 301.34 167.59ZM319.96 186.21C318.08 186.21 316.55 187.74 316.55 189.62C316.55 191.5 318.08 193.03 319.96 193.03C321.85 193.03 323.38 191.5 323.38 189.62C323.38 187.74 321.85 186.21 319.96 186.21ZM282.72 186.21C280.84 186.21 279.31 187.74 279.31 189.62C279.31 191.5 280.84 193.03 282.72 193.03C284.61 193.03 286.14 191.5 286.14 189.62C286.14 187.74 284.61 186.21 282.72 186.21ZM319.96 148.96C318.08 148.96 316.55 150.5 316.55 152.38C316.55 154.26 318.08 155.79 319.96 155.79C321.85 155.79 323.38 154.26 323.38 152.38C323.38 150.5 321.85 148.96 319.96 148.96ZM282.72 148.96C280.84 148.96 279.31 150.5 279.31 152.38C279.31 154.26 280.84 155.79 282.72 155.79C284.61 155.79 286.14 154.26 286.14 152.38C286.14 150.5 284.61 148.96 282.72 148.96ZM265.65 205.22L265.65 204.83L264.1 204.83L262.55 204.83L262.55 205.22C261.92 205.54 261.41 206.06 261.08 206.69L260.69 206.69L260.69 208.24L260.69 209.79L261.08 209.79C261.41 210.42 261.92 210.94 262.55 211.26L262.55 211.65L264.1 211.65L265.65 211.65L265.65 211.26C266.29 210.94 266.8 210.42 267.13 209.79L267.52 209.79L267.52 208.24L267.52 206.69L267.13 206.69C266.8 206.06 266.29 205.54 265.65 205.22ZM265.65 167.98L265.65 167.59L264.1 167.59L262.55 167.59L262.55 167.98C261.45 168.54 260.69 169.68 260.69 171C260.69 172.32 261.45 173.46 262.55 174.02L262.55 174.41L264.1 174.41L265.65 174.41L265.65 174.02C266.75 173.46 267.52 172.32 267.52 171C267.52 169.68 266.75 168.54 265.65 167.98ZM301.34 279.31C300.02 279.31 298.89 280.07 298.32 281.17L297.93 281.17L297.93 282.72L297.93 284.27L298.32 284.27C298.89 285.37 300.02 286.14 301.34 286.14C302.66 286.14 303.8 285.37 304.37 284.27L304.76 284.27L304.76 282.72L304.76 281.17L304.37 281.17C303.8 280.07 302.66 279.31 301.34 279.31ZM301.34 242.07C299.46 242.07 297.93 243.6 297.93 245.48C297.93 247.36 299.46 248.9 301.34 248.9C303.23 248.9 304.76 247.36 304.76 245.48C304.76 243.6 303.23 242.07 301.34 242.07ZM319.96 260.69C318.08 260.69 316.55 262.22 316.55 264.1C316.55 265.82 317.85 267.26 319.57 267.46L320.56 267.58L321.08 266.74C321.66 265.78 322.24 264.82 322.81 263.85L323.31 263L322.75 262.19C322.09 261.23 321.08 260.69 319.96 260.69ZM282.72 260.69C280.84 260.69 279.31 262.22 279.31 264.1C279.31 265.99 280.84 267.52 282.72 267.52C284.61 267.52 286.14 265.99 286.14 264.1C286.14 262.22 284.61 260.69 282.72 260.69ZM319.96 223.45C318.08 223.45 316.55 224.98 316.55 226.86C316.55 228.74 318.08 230.28 319.96 230.28C321.85 230.28 323.38 228.74 323.38 226.86C323.38 224.98 321.85 223.45 319.96 223.45ZM282.72 223.45C280.84 223.45 279.31 224.98 279.31 226.86C279.31 228.74 280.84 230.28 282.72 230.28C284.61 230.28 286.14 228.74 286.14 226.86C286.14 224.98 284.61 223.45 282.72 223.45ZM265.65 279.7L265.65 279.31L264.1 279.31L262.55 279.31L262.55 279.7C261.92 280.03 261.41 280.54 261.08 281.17L260.69 281.17L260.69 282.72L260.69 284.27L261.08 284.27C261.41 284.91 261.92 285.42 262.55 285.75L262.55 286.14L264.1 286.14L265.65 286.14L265.65 285.75C266.29 285.42 266.8 284.91 267.13 284.27L267.52 284.27L267.52 282.72L267.52 281.17L267.13 281.17C266.8 280.54 266.29 280.03 265.65 279.7ZM265.65 242.46L265.65 242.07L264.1 242.07L262.55 242.07L262.55 242.46C261.45 243.03 260.69 244.16 260.69 245.48C260.69 246.8 261.45 247.94 262.55 248.51L262.55 248.9L264.1 248.9L265.65 248.9L265.65 248.51C266.75 247.94 267.52 246.8 267.52 245.48C267.52 244.16 266.75 243.03 265.65 242.46ZM282.72 297.93C280.84 297.93 279.31 299.46 279.31 301.34C279.31 303.23 280.84 304.76 282.72 304.76C284.61 304.76 286.14 303.23 286.14 301.34C286.14 299.46 284.61 297.93 282.72 297.93ZM265.65 316.94L265.65 316.55L264.1 316.55L262.55 316.55L262.55 316.94C261.45 317.51 260.69 318.64 260.69 319.96C260.69 321.28 261.45 322.42 262.55 322.99L262.55 323.38L264.1 323.38L265.65 323.38L265.65 322.99C266.75 322.42 267.52 321.28 267.52 319.96C267.52 318.64 266.75 317.51 265.65 316.94ZM226.86 55.86C225.54 55.86 224.41 56.62 223.84 57.72L223.45 57.72L223.45 59.28L223.45 60.83L223.84 60.83C224.41 61.93 225.54 62.69 226.86 62.69C228.18 62.69 229.32 61.93 229.89 60.83L230.28 60.83L230.28 59.28L230.28 57.72L229.89 57.72C229.32 56.62 228.18 55.86 226.86 55.86ZM226.86 18.62C224.98 18.62 223.45 20.15 223.45 22.03C223.45 23.92 224.98 25.45 226.86 25.45C228.74 25.45 230.28 23.92 230.28 22.03C230.28 20.15 228.74 18.62 226.86 18.62ZM265.65 22.89L264.94 22.43C264.94 22.43 264.94 22.43 264.93 22.43L262.55 20.9L262.55 20.94L259.41 18.98L260.9 23.17C261.2 24 261.81 24.63 262.55 25.02L262.55 25.45L264.1 25.45L265.65 25.45L265.65 25.24L268.66 24.82L265.65 22.89L265.65 22.89ZM245.48 37.24C243.6 37.24 242.07 38.77 242.07 40.66C242.07 42.54 243.6 44.07 245.48 44.07C247.36 44.07 248.9 42.54 248.9 40.66C248.9 38.77 247.36 37.24 245.48 37.24ZM208.24 37.24C206.36 37.24 204.83 38.77 204.83 40.66C204.83 42.54 206.36 44.07 208.24 44.07C210.12 44.07 211.65 42.54 211.65 40.66C211.65 38.77 210.12 37.24 208.24 37.24ZM208.24 0C206.36 0 204.83 1.53 204.83 3.41C204.83 5.3 206.36 6.83 208.24 6.83C210.12 6.83 211.65 5.3 211.65 3.41C211.65 1.53 210.12 0 208.24 0ZM191.17 56.25L191.17 55.86L189.62 55.86L188.07 55.86L188.07 56.25C187.44 56.58 186.92 57.09 186.6 57.72L186.21 57.72L186.21 59.28L186.21 60.83L186.6 60.83C186.92 61.46 187.44 61.97 188.07 62.3L188.07 62.69L189.62 62.69L191.17 62.69L191.17 62.3C191.8 61.97 192.32 61.46 192.64 60.83L193.03 60.83L193.03 59.28L193.03 57.72L192.64 57.72C192.32 57.09 191.8 56.58 191.17 56.25ZM191.17 19.01L191.17 18.62L189.62 18.62L188.07 18.62L188.07 19.01C186.97 19.58 186.21 20.71 186.21 22.03C186.21 23.36 186.97 24.49 188.07 25.06L188.07 25.45L189.62 25.45L191.17 25.45L191.17 25.06C192.27 24.49 193.03 23.36 193.03 22.03C193.03 20.71 192.27 19.58 191.17 19.01ZM226.86 130.34C225.54 130.34 224.41 131.11 223.84 132.21L223.45 132.21L223.45 133.76L223.45 135.31L223.84 135.31C224.41 136.41 225.54 137.17 226.86 137.17C228.18 137.17 229.32 136.41 229.89 135.31L230.28 135.31L230.28 133.76L230.28 132.21L229.89 132.21C229.32 131.11 228.18 130.34 226.86 130.34ZM226.86 93.1C224.98 93.1 223.45 94.63 223.45 96.52C223.45 98.4 224.98 99.93 226.86 99.93C228.74 99.93 230.28 98.4 230.28 96.52C230.28 94.63 228.74 93.1 226.86 93.1ZM245.48 111.72C243.6 111.72 242.07 113.25 242.07 115.14C242.07 117.02 243.6 118.55 245.48 118.55C247.36 118.55 248.9 117.02 248.9 115.14C248.9 113.25 247.36 111.72 245.48 111.72ZM208.24 111.72C206.36 111.72 204.83 113.25 204.83 115.14C204.83 117.02 206.36 118.55 208.24 118.55C210.12 118.55 211.65 117.02 211.65 115.14C211.65 113.25 210.12 111.72 208.24 111.72ZM245.48 74.48C243.6 74.48 242.07 76.01 242.07 77.9C242.07 79.78 243.6 81.31 245.48 81.31C247.36 81.31 248.9 79.78 248.9 77.9C248.9 76.01 247.36 74.48 245.48 74.48ZM208.24 74.48C206.36 74.48 204.83 76.01 204.83 77.9C204.83 79.78 206.36 81.31 208.24 81.31C210.12 81.31 211.65 79.78 211.65 77.9C211.65 76.01 210.12 74.48 208.24 74.48ZM191.17 130.73L191.17 130.34L189.62 130.34L188.07 130.34L188.07 130.73C187.44 131.06 186.92 131.57 186.6 132.21L186.21 132.21L186.21 133.76L186.21 135.31L186.6 135.31C186.92 135.94 187.44 136.45 188.07 136.78L188.07 137.17L189.62 137.17L191.17 137.17L191.17 136.78C191.8 136.45 192.32 135.94 192.64 135.31L193.03 135.31L193.03 133.76L193.03 132.21L192.64 132.21C192.32 131.57 191.8 131.06 191.17 130.73ZM191.17 93.49L191.17 93.1L189.62 93.1L188.07 93.1L188.07 93.49C186.97 94.06 186.21 95.2 186.21 96.52C186.21 97.84 186.97 98.97 188.07 99.54L188.07 99.93L189.62 99.93L191.17 99.93L191.17 99.54C192.27 98.97 193.03 97.84 193.03 96.52C193.03 95.2 192.27 94.06 191.17 93.49ZM226.86 204.83C225.54 204.83 224.41 205.59 223.84 206.69L223.45 206.69L223.45 208.24L223.45 209.79L223.84 209.79C224.41 210.89 225.54 211.65 226.86 211.65C228.18 211.65 229.32 210.89 229.89 209.79L230.28 209.79L230.28 208.24L230.28 206.69L229.89 206.69C229.32 205.59 228.18 204.83 226.86 204.83ZM226.86 167.59C224.98 167.59 223.45 169.12 223.45 171C223.45 172.88 224.98 174.41 226.86 174.41C228.74 174.41 230.28 172.88 230.28 171C230.28 169.12 228.74 167.59 226.86 167.59ZM245.48 186.21C243.6 186.21 242.07 187.74 242.07 189.62C242.07 191.5 243.6 193.03 245.48 193.03C247.36 193.03 248.9 191.5 248.9 189.62C248.9 187.74 247.36 186.21 245.48 186.21ZM208.24 186.21C206.36 186.21 204.83 187.74 204.83 189.62C204.83 191.5 206.36 193.03 208.24 193.03C210.12 193.03 211.65 191.5 211.65 189.62C211.65 187.74 210.12 186.21 208.24 186.21ZM245.48 148.96C243.6 148.96 242.07 150.5 242.07 152.38C242.07 154.26 243.6 155.79 245.48 155.79C247.36 155.79 248.9 154.26 248.9 152.38C248.9 150.5 247.36 148.96 245.48 148.96ZM208.24 148.96C206.36 148.96 204.83 150.5 204.83 152.38C204.83 154.26 206.36 155.79 208.24 155.79C210.12 155.79 211.65 154.26 211.65 152.38C211.65 150.5 210.12 148.96 208.24 148.96ZM191.17 205.22L191.17 204.83L189.62 204.83L188.07 204.83L188.07 205.22C187.44 205.54 186.92 206.06 186.6 206.69L186.21 206.69L186.21 208.24L186.21 209.79L186.6 209.79C186.92 210.42 187.44 210.94 188.07 211.26L188.07 211.65L189.62 211.65L191.17 211.65L191.17 211.26C191.8 210.94 192.32 210.42 192.64 209.79L193.03 209.79L193.03 208.24L193.03 206.69L192.64 206.69C192.32 206.06 191.8 205.54 191.17 205.22ZM191.17 167.98L191.17 167.59L189.62 167.59L188.07 167.59L188.07 167.98C186.97 168.54 186.21 169.68 186.21 171C186.21 172.32 186.97 173.46 188.07 174.02L188.07 174.41L189.62 174.41L191.17 174.41L191.17 174.02C192.27 173.46 193.03 172.32 193.03 171C193.03 169.68 192.27 168.54 191.17 167.98ZM226.86 279.31C225.54 279.31 224.41 280.07 223.84 281.17L223.45 281.17L223.45 282.72L223.45 284.27L223.84 284.27C224.41 285.37 225.54 286.14 226.86 286.14C228.18 286.14 229.32 285.37 229.89 284.27L230.28 284.27L230.28 282.72L230.28 281.17L229.89 281.17C229.32 280.07 228.18 279.31 226.86 279.31ZM226.86 242.07C224.98 242.07 223.45 243.6 223.45 245.48C223.45 247.36 224.98 248.9 226.86 248.9C228.74 248.9 230.28 247.36 230.28 245.48C230.28 243.6 228.74 242.07 226.86 242.07ZM245.48 260.69C243.6 260.69 242.07 262.22 242.07 264.1C242.07 265.99 243.6 267.52 245.48 267.52C247.36 267.52 248.9 265.99 248.9 264.1C248.9 262.22 247.36 260.69 245.48 260.69ZM208.24 260.69C206.36 260.69 204.83 262.22 204.83 264.1C204.83 265.99 206.36 267.52 208.24 267.52C210.12 267.52 211.65 265.99 211.65 264.1C211.65 262.22 210.12 260.69 208.24 260.69ZM245.48 223.45C243.6 223.45 242.07 224.98 242.07 226.86C242.07 228.74 243.6 230.28 245.48 230.28C247.36 230.28 248.9 228.74 248.9 226.86C248.9 224.98 247.36 223.45 245.48 223.45ZM208.24 223.45C206.36 223.45 204.83 224.98 204.83 226.86C204.83 228.74 206.36 230.28 208.24 230.28C210.12 230.28 211.65 228.74 211.65 226.86C211.65 224.98 210.12 223.45 208.24 223.45ZM191.17 279.7L191.17 279.31L189.62 279.31L188.07 279.31L188.07 279.7C187.44 280.03 186.92 280.54 186.6 281.17L186.21 281.17L186.21 282.72L186.21 284.27L186.6 284.27C186.92 284.91 187.44 285.42 188.07 285.75L188.07 286.14L189.62 286.14L191.17 286.14L191.17 285.75C191.8 285.42 192.32 284.91 192.64 284.27L193.03 284.27L193.03 282.72L193.03 281.17L192.64 281.17C192.32 280.54 191.8 280.03 191.17 279.7ZM191.17 242.46L191.17 242.07L189.62 242.07L188.07 242.07L188.07 242.46C186.97 243.03 186.21 244.16 186.21 245.48C186.21 246.8 186.97 247.94 188.07 248.51L188.07 248.9L189.62 248.9L191.17 248.9L191.17 248.51C192.27 247.94 193.03 246.8 193.03 245.48C193.03 244.16 192.27 243.03 191.17 242.46ZM226.86 316.55C224.98 316.55 223.45 318.08 223.45 319.96C223.45 321.85 224.98 323.38 226.86 323.38C228.74 323.38 230.28 321.85 230.28 319.96C230.28 318.08 228.74 316.55 226.86 316.55ZM208.24 335.17C206.36 335.17 204.83 336.7 204.83 338.58C204.83 340.47 206.36 342 208.24 342C210.12 342 211.65 340.47 211.65 338.58C211.65 336.7 210.12 335.17 208.24 335.17ZM245.48 297.93C243.6 297.93 242.07 299.46 242.07 301.34C242.07 303.23 243.6 304.76 245.48 304.76C247.36 304.76 248.9 303.23 248.9 301.34C248.9 299.46 247.36 297.93 245.48 297.93ZM208.24 297.93C206.36 297.93 204.83 299.46 204.83 301.34C204.83 303.23 206.36 304.76 208.24 304.76C210.12 304.76 211.65 303.23 211.65 301.34C211.65 299.46 210.12 297.93 208.24 297.93ZM191.17 316.94L191.17 316.55L189.62 316.55L188.07 316.55L188.07 316.94C186.97 317.51 186.21 318.64 186.21 319.96C186.21 321.28 186.97 322.42 188.07 322.99L188.07 323.38L189.62 323.38L191.17 323.38L191.17 322.99C192.27 322.42 193.03 321.28 193.03 319.96C193.03 318.64 192.27 317.51 191.17 316.94ZM152.38 55.86C151.06 55.86 149.92 56.62 149.36 57.72L148.96 57.72L148.96 59.28L148.96 60.83L149.36 60.83C149.92 61.93 151.06 62.69 152.38 62.69C153.7 62.69 154.83 61.93 155.4 60.83L155.79 60.83L155.79 59.28L155.79 57.72L155.4 57.72C154.83 56.62 153.7 55.86 152.38 55.86ZM152.38 18.62C150.5 18.62 148.96 20.15 148.96 22.03C148.96 23.92 150.5 25.45 152.38 25.45C154.26 25.45 155.79 23.92 155.79 22.03C155.79 20.15 154.26 18.62 152.38 18.62ZM171 37.24C169.12 37.24 167.59 38.77 167.59 40.66C167.59 42.54 169.12 44.07 171 44.07C172.88 44.07 174.41 42.54 174.41 40.66C174.41 38.77 172.88 37.24 171 37.24ZM133.76 37.24C131.88 37.24 130.34 38.77 130.34 40.66C130.34 42.54 131.88 44.07 133.76 44.07C135.64 44.07 137.17 42.54 137.17 40.66C137.17 38.77 135.64 37.24 133.76 37.24ZM171 0C169.12 0 167.59 1.53 167.59 3.41C167.59 5.3 169.12 6.83 171 6.83C172.88 6.83 174.41 5.3 174.41 3.41C174.41 1.53 172.88 0 171 0ZM133.76 0C131.88 0 130.34 1.53 130.34 3.41C130.34 5.3 131.88 6.83 133.76 6.83C135.64 6.83 137.17 5.3 137.17 3.41C137.17 1.53 135.64 0 133.76 0ZM116.69 56.25L116.69 55.86L115.14 55.86L113.59 55.86L113.59 56.25C112.95 56.58 112.44 57.09 112.11 57.72L111.72 57.72L111.72 59.28L111.72 60.83L112.11 60.83C112.44 61.46 112.95 61.97 113.59 62.3L113.59 62.69L115.14 62.69L116.69 62.69L116.69 62.3C117.32 61.97 117.83 61.46 118.16 60.83L118.55 60.83L118.55 59.28L118.55 57.72L118.16 57.72C117.83 57.09 117.32 56.58 116.69 56.25ZM116.69 19.01L116.69 18.62L115.14 18.62L113.59 18.62L113.59 19.01C112.49 19.58 111.72 20.71 111.72 22.03C111.72 23.36 112.49 24.49 113.59 25.06L113.59 25.45L115.14 25.45L116.69 25.45L116.69 25.06C117.79 24.49 118.55 23.36 118.55 22.03C118.55 20.71 117.79 19.58 116.69 19.01ZM152.38 130.34C151.06 130.34 149.92 131.11 149.36 132.21L148.96 132.21L148.96 133.76L148.96 135.31L149.36 135.31C149.92 136.41 151.06 137.17 152.38 137.17C153.7 137.17 154.83 136.41 155.4 135.31L155.79 135.31L155.79 133.76L155.79 132.21L155.4 132.21C154.83 131.11 153.7 130.34 152.38 130.34ZM152.38 93.1C150.5 93.1 148.96 94.63 148.96 96.52C148.96 98.4 150.5 99.93 152.38 99.93C154.26 99.93 155.79 98.4 155.79 96.52C155.79 94.63 154.26 93.1 152.38 93.1ZM171 111.72C169.12 111.72 167.59 113.25 167.59 115.14C167.59 117.02 169.12 118.55 171 118.55C172.88 118.55 174.41 117.02 174.41 115.14C174.41 113.25 172.88 111.72 171 111.72ZM133.76 111.72C131.88 111.72 130.34 113.25 130.34 115.14C130.34 117.02 131.88 118.55 133.76 118.55C135.64 118.55 137.17 117.02 137.17 115.14C137.17 113.25 135.64 111.72 133.76 111.72ZM171 74.48C169.12 74.48 167.59 76.01 167.59 77.9C167.59 79.78 169.12 81.31 171 81.31C172.88 81.31 174.41 79.78 174.41 77.9C174.41 76.01 172.88 74.48 171 74.48ZM133.76 74.48C131.88 74.48 130.34 76.01 130.34 77.9C130.34 79.78 131.88 81.31 133.76 81.31C135.64 81.31 137.17 79.78 137.17 77.9C137.17 76.01 135.64 74.48 133.76 74.48ZM116.69 130.73L116.69 130.34L115.14 130.34L113.59 130.34L113.59 130.73C112.95 131.06 112.44 131.57 112.11 132.21L111.72 132.21L111.72 133.76L111.72 135.31L112.11 135.31C112.44 135.94 112.95 136.45 113.59 136.78L113.59 137.17L115.14 137.17L116.69 137.17L116.69 136.78C117.32 136.45 117.83 135.94 118.16 135.31L118.55 135.31L118.55 133.76L118.55 132.21L118.16 132.21C117.83 131.57 117.32 131.06 116.69 130.73ZM116.69 93.49L116.69 93.1L115.14 93.1L113.59 93.1L113.59 93.49C112.49 94.06 111.72 95.2 111.72 96.52C111.72 97.84 112.49 98.97 113.59 99.54L113.59 99.93L115.14 99.93L116.69 99.93L116.69 99.54C117.79 98.97 118.55 97.84 118.55 96.52C118.55 95.2 117.79 94.06 116.69 93.49ZM152.38 204.83C151.06 204.83 149.92 205.59 149.36 206.69L148.96 206.69L148.96 208.24L148.96 209.79L149.36 209.79C149.92 210.89 151.06 211.65 152.38 211.65C153.7 211.65 154.83 210.89 155.4 209.79L155.79 209.79L155.79 208.24L155.79 206.69L155.4 206.69C154.83 205.59 153.7 204.83 152.38 204.83ZM152.38 167.59C150.5 167.59 148.96 169.12 148.96 171C148.96 172.88 150.5 174.41 152.38 174.41C154.26 174.41 155.79 172.88 155.79 171C155.79 169.12 154.26 167.59 152.38 167.59ZM171 186.21C169.12 186.21 167.59 187.74 167.59 189.62C167.59 191.5 169.12 193.03 171 193.03C172.88 193.03 174.41 191.5 174.41 189.62C174.41 187.74 172.88 186.21 171 186.21ZM133.76 186.21C131.88 186.21 130.34 187.74 130.34 189.62C130.34 191.5 131.88 193.03 133.76 193.03C135.64 193.03 137.17 191.5 137.17 189.62C137.17 187.74 135.64 186.21 133.76 186.21ZM171 148.96C169.12 148.96 167.59 150.5 167.59 152.38C167.59 154.26 169.12 155.79 171 155.79C172.88 155.79 174.41 154.26 174.41 152.38C174.41 150.5 172.88 148.96 171 148.96ZM133.76 148.96C131.88 148.96 130.34 150.5 130.34 152.38C130.34 154.26 131.88 155.79 133.76 155.79C135.64 155.79 137.17 154.26 137.17 152.38C137.17 150.5 135.64 148.96 133.76 148.96ZM116.69 205.22L116.69 204.83L115.14 204.83L113.59 204.83L113.59 205.22C112.95 205.54 112.44 206.06 112.11 206.69L111.72 206.69L111.72 208.24L111.72 209.79L112.11 209.79C112.44 210.42 112.95 210.94 113.59 211.26L113.59 211.65L115.14 211.65L116.69 211.65L116.69 211.26C117.32 210.94 117.83 210.42 118.16 209.79L118.55 209.79L118.55 208.24L118.55 206.69L118.16 206.69C117.83 206.06 117.32 205.54 116.69 205.22ZM116.69 167.98L116.69 167.59L115.14 167.59L113.59 167.59L113.59 167.98C112.49 168.54 111.72 169.68 111.72 171C111.72 172.32 112.49 173.46 113.59 174.02L113.59 174.41L115.14 174.41L116.69 174.41L116.69 174.02C117.79 173.46 118.55 172.32 118.55 171C118.55 169.68 117.79 168.54 116.69 167.98ZM152.38 279.31C151.06 279.31 149.92 280.07 149.36 281.17L148.96 281.17L148.96 282.72L148.96 284.27L149.36 284.27C149.92 285.37 151.06 286.14 152.38 286.14C153.7 286.14 154.83 285.37 155.4 284.27L155.79 284.27L155.79 282.72L155.79 281.17L155.4 281.17C154.83 280.07 153.7 279.31 152.38 279.31ZM152.38 242.07C150.5 242.07 148.96 243.6 148.96 245.48C148.96 247.36 150.5 248.9 152.38 248.9C154.26 248.9 155.79 247.36 155.79 245.48C155.79 243.6 154.26 242.07 152.38 242.07ZM171 260.69C169.12 260.69 167.59 262.22 167.59 264.1C167.59 265.99 169.12 267.52 171 267.52C172.88 267.52 174.41 265.99 174.41 264.1C174.41 262.22 172.88 260.69 171 260.69ZM133.76 260.69C131.88 260.69 130.34 262.22 130.34 264.1C130.34 265.99 131.88 267.52 133.76 267.52C135.64 267.52 137.17 265.99 137.17 264.1C137.17 262.22 135.64 260.69 133.76 260.69ZM171 223.45C169.12 223.45 167.59 224.98 167.59 226.86C167.59 228.74 169.12 230.28 171 230.28C172.88 230.28 174.41 228.74 174.41 226.86C174.41 224.98 172.88 223.45 171 223.45ZM133.76 223.45C131.88 223.45 130.34 224.98 130.34 226.86C130.34 228.74 131.88 230.28 133.76 230.28C135.64 230.28 137.17 228.74 137.17 226.86C137.17 224.98 135.64 223.45 133.76 223.45ZM116.69 279.7L116.69 279.31L115.14 279.31L113.59 279.31L113.59 279.7C112.95 280.03 112.44 280.54 112.11 281.17L111.72 281.17L111.72 282.72L111.72 284.27L112.11 284.27C112.44 284.91 112.95 285.42 113.59 285.75L113.59 286.14L115.14 286.14L116.69 286.14L116.69 285.75C117.32 285.42 117.83 284.91 118.16 284.27L118.55 284.27L118.55 282.72L118.55 281.17L118.16 281.17C117.83 280.54 117.32 280.03 116.69 279.7ZM116.69 242.46L116.69 242.07L115.14 242.07L113.59 242.07L113.59 242.46C112.49 243.03 111.72 244.16 111.72 245.48C111.72 246.8 112.49 247.94 113.59 248.51L113.59 248.9L115.14 248.9L116.69 248.9L116.69 248.51C117.79 247.94 118.55 246.8 118.55 245.48C118.55 244.16 117.79 243.03 116.69 242.46ZM152.38 316.55C150.5 316.55 148.96 318.08 148.96 319.96C148.96 321.85 150.5 323.38 152.38 323.38C154.26 323.38 155.79 321.85 155.79 319.96C155.79 318.08 154.26 316.55 152.38 316.55ZM171 335.17C169.12 335.17 167.59 336.7 167.59 338.58C167.59 340.47 169.12 342 171 342C172.88 342 174.41 340.47 174.41 338.58C174.41 336.7 172.88 335.17 171 335.17ZM133.76 335.17C131.88 335.17 130.34 336.7 130.34 338.58C130.34 340.47 131.88 342 133.76 342C135.64 342 137.17 340.47 137.17 338.58C137.17 336.7 135.64 335.17 133.76 335.17ZM171 297.93C169.12 297.93 167.59 299.46 167.59 301.34C167.59 303.23 169.12 304.76 171 304.76C172.88 304.76 174.41 303.23 174.41 301.34C174.41 299.46 172.88 297.93 171 297.93ZM133.76 297.93C131.88 297.93 130.34 299.46 130.34 301.34C130.34 303.23 131.88 304.76 133.76 304.76C135.64 304.76 137.17 303.23 137.17 301.34C137.17 299.46 135.64 297.93 133.76 297.93ZM116.69 316.94L116.69 316.55L115.14 316.55L113.59 316.55L113.59 316.94C112.49 317.51 111.72 318.64 111.72 319.96C111.72 321.28 112.49 322.42 113.59 322.99L113.59 323.38L115.14 323.38L116.69 323.38L116.69 322.99C117.79 322.42 118.55 321.28 118.55 319.96C118.55 318.64 117.79 317.51 116.69 316.94ZM77.9 55.86C76.58 55.86 75.44 56.62 74.87 57.72L74.48 57.72L74.48 59.28L74.48 60.83L74.87 60.83C75.44 61.93 76.58 62.69 77.9 62.69C79.22 62.69 80.35 61.93 80.92 60.83L81.31 60.83L81.31 59.28L81.31 57.72L80.92 57.72C80.35 56.62 79.22 55.86 77.9 55.86ZM79.64 19.14L78.84 18.66L78.05 19.13C77.11 19.68 76.17 20.24 75.24 20.82L74.45 21.3L74.51 22.23C74.61 24.03 76.1 25.45 77.9 25.45C79.78 25.45 81.31 23.92 81.31 22.03C81.31 20.85 80.68 19.77 79.64 19.14ZM96.52 37.24C94.64 37.24 93.1 38.77 93.1 40.66C93.1 42.54 94.64 44.07 96.52 44.07C98.4 44.07 99.93 42.54 99.93 40.66C99.93 38.77 98.4 37.24 96.52 37.24ZM59.28 37.24C57.39 37.24 55.86 38.77 55.86 40.66C55.86 42.54 57.39 44.07 59.28 44.07C61.16 44.07 62.69 42.54 62.69 40.66C62.69 38.77 61.16 37.24 59.28 37.24ZM42.21 56.25L42.21 55.86L40.66 55.86L39.1 55.86L39.1 56.25C38.47 56.58 37.96 57.09 37.63 57.72L37.24 57.72L37.24 59.28L37.24 60.83L37.63 60.83C37.96 61.46 38.47 61.97 39.1 62.3L39.1 62.69L40.66 62.69L42.21 62.69L42.21 62.3C42.84 61.97 43.35 61.46 43.68 60.83L44.07 60.83L44.07 59.28L44.07 57.72L43.68 57.72C43.35 57.09 42.84 56.58 42.21 56.25ZM77.9 130.34C76.58 130.34 75.44 131.11 74.87 132.21L74.48 132.21L74.48 133.76L74.48 135.31L74.87 135.31C75.44 136.41 76.58 137.17 77.9 137.17C79.22 137.17 80.35 136.41 80.92 135.31L81.31 135.31L81.31 133.76L81.31 132.21L80.92 132.21C80.35 131.11 79.22 130.34 77.9 130.34ZM77.9 93.1C76.01 93.1 74.48 94.63 74.48 96.52C74.48 98.4 76.01 99.93 77.9 99.93C79.78 99.93 81.31 98.4 81.31 96.52C81.31 94.63 79.78 93.1 77.9 93.1ZM96.52 111.72C94.64 111.72 93.1 113.25 93.1 115.14C93.1 117.02 94.64 118.55 96.52 118.55C98.4 118.55 99.93 117.02 99.93 115.14C99.93 113.25 98.4 111.72 96.52 111.72ZM59.28 111.72C57.39 111.72 55.86 113.25 55.86 115.14C55.86 117.02 57.39 118.55 59.28 118.55C61.16 118.55 62.69 117.02 62.69 115.14C62.69 113.25 61.16 111.72 59.28 111.72ZM96.52 74.48C94.64 74.48 93.1 76.01 93.1 77.9C93.1 79.78 94.64 81.31 96.52 81.31C98.4 81.31 99.93 79.78 99.93 77.9C99.93 76.01 98.4 74.48 96.52 74.48ZM59.28 74.48C57.39 74.48 55.86 76.01 55.86 77.9C55.86 79.78 57.39 81.31 59.28 81.31C61.16 81.31 62.69 79.78 62.69 77.9C62.69 76.01 61.16 74.48 59.28 74.48ZM42.21 130.73L42.21 130.34L40.66 130.34L39.1 130.34L39.1 130.73C38.47 131.06 37.96 131.57 37.63 132.21L37.24 132.21L37.24 133.76L37.24 135.31L37.63 135.31C37.96 135.94 38.47 136.45 39.1 136.78L39.1 137.17L40.66 137.17L42.21 137.17L42.21 136.78C42.84 136.45 43.35 135.94 43.68 135.31L44.07 135.31L44.07 133.76L44.07 132.21L43.68 132.21C43.35 131.57 42.84 131.06 42.21 130.73ZM42.21 93.49L42.21 93.1L40.66 93.1L39.1 93.1L39.1 93.49C38 94.06 37.24 95.2 37.24 96.52C37.24 97.84 38 98.97 39.1 99.54L39.1 99.93L40.66 99.93L42.21 99.93L42.21 99.54C43.31 98.97 44.07 97.84 44.07 96.52C44.07 95.2 43.31 94.06 42.21 93.49ZM77.9 204.83C76.58 204.83 75.44 205.59 74.87 206.69L74.48 206.69L74.48 208.24L74.48 209.79L74.87 209.79C75.44 210.89 76.58 211.65 77.9 211.65C79.22 211.65 80.35 210.89 80.92 209.79L81.31 209.79L81.31 208.24L81.31 206.69L80.92 206.69C80.35 205.59 79.22 204.83 77.9 204.83ZM77.9 167.59C76.01 167.59 74.48 169.12 74.48 171C74.48 172.88 76.01 174.41 77.9 174.41C79.78 174.41 81.31 172.88 81.31 171C81.31 169.12 79.78 167.59 77.9 167.59ZM96.52 186.21C94.64 186.21 93.1 187.74 93.1 189.62C93.1 191.5 94.64 193.03 96.52 193.03C98.4 193.03 99.93 191.5 99.93 189.62C99.93 187.74 98.4 186.21 96.52 186.21ZM59.28 186.21C57.39 186.21 55.86 187.74 55.86 189.62C55.86 191.5 57.39 193.03 59.28 193.03C61.16 193.03 62.69 191.5 62.69 189.62C62.69 187.74 61.16 186.21 59.28 186.21ZM96.52 148.96C94.64 148.96 93.1 150.5 93.1 152.38C93.1 154.26 94.64 155.79 96.52 155.79C98.4 155.79 99.93 154.26 99.93 152.38C99.93 150.5 98.4 148.96 96.52 148.96ZM59.28 148.96C57.39 148.96 55.86 150.5 55.86 152.38C55.86 154.26 57.39 155.79 59.28 155.79C61.16 155.79 62.69 154.26 62.69 152.38C62.69 150.5 61.16 148.96 59.28 148.96ZM42.21 205.22L42.21 204.83L40.66 204.83L39.1 204.83L39.1 205.22C38.47 205.54 37.96 206.06 37.63 206.69L37.24 206.69L37.24 208.24L37.24 209.79L37.63 209.79C37.96 210.42 38.47 210.94 39.1 211.26L39.1 211.65L40.66 211.65L42.21 211.65L42.21 211.26C42.84 210.94 43.35 210.42 43.68 209.79L44.07 209.79L44.07 208.24L44.07 206.69L43.68 206.69C43.35 206.06 42.84 205.54 42.21 205.22ZM42.21 167.98L42.21 167.59L40.66 167.59L39.1 167.59L39.1 167.98C38 168.54 37.24 169.68 37.24 171C37.24 172.32 38 173.46 39.1 174.02L39.1 174.41L40.66 174.41L42.21 174.41L42.21 174.02C43.31 173.46 44.07 172.32 44.07 171C44.07 169.68 43.31 168.54 42.21 167.98ZM77.9 279.31C76.58 279.31 75.44 280.07 74.87 281.17L74.48 281.17L74.48 282.72L74.48 284.27L74.87 284.27C75.44 285.37 76.58 286.14 77.9 286.14C79.22 286.14 80.35 285.37 80.92 284.27L81.31 284.27L81.31 282.72L81.31 281.17L80.92 281.17C80.35 280.07 79.22 279.31 77.9 279.31ZM77.9 242.07C76.01 242.07 74.48 243.6 74.48 245.48C74.48 247.36 76.01 248.9 77.9 248.9C79.78 248.9 81.31 247.36 81.31 245.48C81.31 243.6 79.78 242.07 77.9 242.07ZM96.52 260.69C94.64 260.69 93.1 262.22 93.1 264.1C93.1 265.99 94.64 267.52 96.52 267.52C98.4 267.52 99.93 265.99 99.93 264.1C99.93 262.22 98.4 260.69 96.52 260.69ZM59.28 260.69C57.39 260.69 55.86 262.22 55.86 264.1C55.86 265.99 57.39 267.52 59.28 267.52C61.16 267.52 62.69 265.99 62.69 264.1C62.69 262.22 61.16 260.69 59.28 260.69ZM96.52 223.45C94.64 223.45 93.1 224.98 93.1 226.86C93.1 228.74 94.64 230.28 96.52 230.28C98.4 230.28 99.93 228.74 99.93 226.86C99.93 224.98 98.4 223.45 96.52 223.45ZM59.28 223.45C57.39 223.45 55.86 224.98 55.86 226.86C55.86 228.74 57.39 230.28 59.28 230.28C61.16 230.28 62.69 228.74 62.69 226.86C62.69 224.98 61.16 223.45 59.28 223.45ZM42.21 279.7L42.21 279.31L40.66 279.31L39.1 279.31L39.1 279.7C38.47 280.03 37.96 280.54 37.63 281.17L37.24 281.17L37.24 282.72L37.24 284.27L37.63 284.27C37.96 284.91 38.47 285.42 39.1 285.75L39.1 286.14L40.66 286.14L42.21 286.14L42.21 285.75C42.84 285.42 43.35 284.91 43.68 284.27L44.07 284.27L44.07 282.72L44.07 281.17L43.68 281.17C43.35 280.54 42.84 280.03 42.21 279.7ZM42.21 242.46L42.21 242.07L40.66 242.07L39.1 242.07L39.1 242.46C38 243.03 37.24 244.16 37.24 245.48C37.24 246.8 38 247.94 39.1 248.51L39.1 248.9L40.66 248.9L42.21 248.9L42.21 248.51C43.31 247.94 44.07 246.8 44.07 245.48C44.07 244.16 43.31 243.03 42.21 242.46ZM77.9 316.55C76.01 316.55 74.48 318.08 74.48 319.96C74.48 321.85 76.01 323.38 77.9 323.38C79.78 323.38 81.31 321.85 81.31 319.96C81.31 318.08 79.78 316.55 77.9 316.55ZM96.52 297.93C94.64 297.93 93.1 299.46 93.1 301.34C93.1 303.23 94.64 304.76 96.52 304.76C98.4 304.76 99.93 303.23 99.93 301.34C99.93 299.46 98.4 297.93 96.52 297.93ZM59.28 297.93C57.39 297.93 55.86 299.46 55.86 301.34C55.86 303.23 57.39 304.76 59.28 304.76C61.16 304.76 62.69 303.23 62.69 301.34C62.69 299.46 61.16 297.93 59.28 297.93ZM3.41 130.34C2.09 130.34 0.96 131.11 0.39 132.21L0 132.21L0 133.76L0 135.31L0.39 135.31C0.96 136.41 2.09 137.17 3.41 137.17C4.74 137.17 5.87 136.41 6.44 135.31L6.83 135.31L6.83 133.76L6.83 132.21L6.44 132.21C5.87 131.11 4.74 130.34 3.41 130.34ZM22.03 111.72C20.15 111.72 18.62 113.25 18.62 115.14C18.62 117.02 20.15 118.55 22.03 118.55C23.92 118.55 25.45 117.02 25.45 115.14C25.45 113.25 23.92 111.72 22.03 111.72ZM22.03 74.48C20.15 74.48 18.62 76.01 18.62 77.9C18.62 79.78 20.15 81.31 22.03 81.31C23.92 81.31 25.45 79.78 25.45 77.9C25.45 76.01 23.92 74.48 22.03 74.48ZM3.41 204.83C2.09 204.83 0.96 205.59 0.39 206.69L0 206.69L0 208.24L0 209.79L0.39 209.79C0.96 210.89 2.09 211.65 3.41 211.65C4.74 211.65 5.87 210.89 6.44 209.79L6.83 209.79L6.83 208.24L6.83 206.69L6.44 206.69C5.87 205.59 4.74 204.83 3.41 204.83ZM3.41 167.59C1.53 167.59 0 169.12 0 171C0 172.88 1.53 174.41 3.41 174.41C5.3 174.41 6.83 172.88 6.83 171C6.83 169.12 5.3 167.59 3.41 167.59ZM22.03 186.21C20.15 186.21 18.62 187.74 18.62 189.62C18.62 191.5 20.15 193.03 22.03 193.03C23.92 193.03 25.45 191.5 25.45 189.62C25.45 187.74 23.92 186.21 22.03 186.21ZM22.03 148.96C20.15 148.96 18.62 150.5 18.62 152.38C18.62 154.26 20.15 155.79 22.03 155.79C23.92 155.79 25.45 154.26 25.45 152.38C25.45 150.5 23.92 148.96 22.03 148.96ZM22.03 260.69C20.15 260.69 18.62 262.22 18.62 264.1C18.62 265.99 20.15 267.52 22.03 267.52C23.92 267.52 25.45 265.99 25.45 264.1C25.45 262.22 23.92 260.69 22.03 260.69ZM22.03 223.45C20.15 223.45 18.62 224.98 18.62 226.86C18.62 228.74 20.15 230.28 22.03 230.28C23.92 230.28 25.45 228.74 25.45 226.86C25.45 224.98 23.92 223.45 22.03 223.45Z" />
			</g>
		</g>
	</g>
</svg>